<svg width="300" height="300" viewBox="0 0 300 300" fill="none" xmlns="http://www.w3.org/2000/svg">
<path d="M0 284H92.2279V161.437L33.6787 112.775V268.146V271.401H13.1692V96.1597L33.4628 112.606V95.0182L0 67.2839V284Z" fill="#BC955C"/>
<path d="M239.293 40.0984L150.13 118.777L61.0113 40.0984L33.6797 16V95.0172L92.2289 143.721L92.272 143.764L92.3152 143.806L139.465 183.378L150.13 192.298L160.795 183.378L197.453 152.6L199.051 151.289L207.902 143.89V143.975L266.624 94.9327V52.0207V16L239.293 40.0984Z" fill="#BC955C"/>
<path d="M266.71 94.9315V112.561L287.219 96.073V271.399H266.623V268.144V112.646L207.901 161.773V283.998H300V67.3663L266.71 94.9315Z" fill="#BC955C"/>
</svg>
